<svg version="1.0" xmlns="http://www.w3.org/2000/svg"
 width="496.000000pt" height="314.000000pt" viewBox="0 0 496.000000 314.000000"
 preserveAspectRatio="xMidYMid meet">
  <g transform="translate(0.000000,314.000000) scale(0.100000,-0.100000)"
    fill="#000000" stroke="none">
    <path d="M0 1570 l0 -1570 2480 0 2480 0 0 1570 0 1570 -2480 0 -2480 0 0
-1570z m631 185 c20 -104 38 -199 40 -210 3 -11 31 75 64 190 l60 210 100 3
c55 1 105 -1 111 -5 6 -5 35 -93 64 -198 29 -104 55 -196 59 -203 4 -7 24 78
45 190 20 111 39 205 42 210 3 4 52 8 110 8 96 0 104 -2 104 -19 0 -45 -160
-745 -172 -752 -7 -5 -57 -9 -111 -9 l-98 0 -13 33 c-8 17 -40 121 -72 229
-32 109 -61 192 -65 185 -4 -6 -32 -100 -63 -207 -31 -107 -61 -205 -66 -217
-9 -22 -15 -23 -114 -23 -71 0 -106 4 -113 13 -5 6 -29 102 -53 212 -24 110
-60 277 -81 370 -20 94 -35 174 -32 178 2 4 53 6 111 5 l107 -3 36 -190z
m1353 185 c139 -20 232 -84 282 -194 24 -52 44 -152 44 -218 l0 -38 -270 0
c-298 0 -284 3 -256 -63 24 -57 61 -82 120 -82 42 0 60 6 88 27 19 14 41 28
49 29 18 4 196 -10 226 -18 22 -5 23 -6 5 -35 -29 -51 -118 -125 -171 -143
-121 -40 -320 -35 -415 10 -195 92 -256 390 -120 587 49 70 137 119 249 137
70 12 90 12 169 1z m963 -5 c104 -31 165 -140 149 -266 -18 -147 -125 -219
-323 -219 l-83 0 0 -140 0 -141 -127 3 -128 3 -3 388 -2 387 233 0 c178 0 245
-4 284 -15z m748 -327 c70 -189 136 -364 146 -390 l19 -48 -135 0 -135 0 -17
60 -18 60 -127 0 -128 0 -17 -60 -16 -60 -129 0 c-70 0 -128 4 -128 8 0 9 64
184 196 535 l89 237 136 0 137 0 127 -342z m369 220 c39 -64 73 -115 77 -113
3 3 37 56 75 120 l69 115 137 0 c76 0 138 -3 138 -7 0 -4 -65 -105 -145 -225
l-145 -218 -2 -162 -3 -163 -127 -3 -128 -3 0 163 0 163 -133 200 c-74 110
-142 213 -152 228 l-18 28 144 -3 144 -3 69 -117z"/>
    <path d="M1843 1760 c-38 -23 -60 -55 -69 -98 l-6 -32 132 0 132 0 -7 36 c-9
51 -33 84 -72 100 -44 19 -72 17 -110 -6z"/>
    <path d="M2697 1773 c-4 -3 -7 -37 -7 -75 l0 -68 55 0 c46 0 60 4 80 25 27 26
32 62 12 89 -18 25 -123 47 -140 29z"/>
    <path d="M3396 1602 c-16 -53 -31 -103 -33 -109 -4 -10 12 -13 61 -13 47 0 66
4 66 13 0 13 -59 207 -63 207 -1 0 -15 -44 -31 -98z"/>
  </g>
</svg>